<?xml version="1.0" encoding="iso-8859-1"?>
<!-- Uploaded to: SVG Repo, www.svgrepo.com, Generator: SVG Repo Mixer Tools -->
<svg fill="#000000" height="800px" width="800px" version="1.1" id="Layer_1" xmlns="http://www.w3.org/2000/svg" xmlns:xlink="http://www.w3.org/1999/xlink" 
	 viewBox="0 0 511.999 511.999" xml:space="preserve">
<g>
	<g>
		<path d="M493.576,305.079v-13.257c0-24.077-19.518-43.595-43.595-43.595h-66.9l-52.453-93.667
			c-4.221-7.536-12.21-12.218-20.848-12.218H186.471c-5.103,12.124-14.604,21.558-26.457,26.621h40.291v16.525
			c9.831-2.999,20.669,0.746,26.408,9.739l1.938,3.037v-29.3h79.531l44.388,79.264H242.268c-1.599,2.077-3.553,3.93-5.887,5.421
			l-10.588,6.757c1.968,3.197,8.337,13.869,8.337,18.03c0,4.921-3.989,8.91-8.91,8.91c-4.921,0-8.91-3.989-8.91-8.91
			c0-3.898,5.601-13.497,7.61-16.835c-0.367,0.234-15.941,10.173-16.664,10.635l-0.212-0.344c-8.626,3.925-18.081,4.466-26.72,1.997
			l-1.768,1.129c-0.427,3.705-1.518,7.345-3.267,10.783c-1.827,3.595-4.274,6.721-7.157,9.307c3.292-0.52,6.663-0.797,10.098-0.797
			c35.546,0,64.466,28.919,64.466,64.466h106.337c0-35.546,28.919-64.466,64.466-64.466c35.547,0,64.466,28.919,64.466,64.466h6.398
			c15.263,0,27.637-12.374,27.637-27.637C512,319.105,504.309,308.873,493.576,305.079z M345.439,291.009
			c-0.45,2.189-2.429,3.724-4.661,3.611c-4.505-0.225-8.734-0.512-11.864-0.87c-8.247,4.385-16.878,8.589-27.254,13.07l-0.141,0.06
			c-2.112,0.911-4.457,0.694-6.315-0.357c-10.399-5.959-16.499-9.997-20.322-12.504c-5.631,2.07-17.301,5.267-25.234,7.366
			c-0.732,0.194-1.497-0.164-1.819-0.849s-0.107-1.503,0.51-1.942c7.192-5.122,18.348-12.923,24.762-16.693
			c1.422-0.837,3.092-0.88,4.497-0.266c7.71,3.439,14.662,6.94,21.42,10.536c11.698-5.207,18.188-7.626,26.972-10.809
			c1.001-0.361,2.04-0.384,2.995-0.125c3.092,0.834,8.154,2.604,13.593,4.617C344.673,286.632,345.889,288.821,345.439,291.009z"/>
	</g>
</g>
<g>
	<g>
		<path d="M109.536,288.079c10.163,15.249,15.439,20.324,12.679,38.847c5.606-9.82,13.711-18.03,23.453-23.756
			C136.868,302.824,133.958,300.495,109.536,288.079z"/>
	</g>
</g>
<g>
	<g>
		<path d="M178.232,316.619c-23.282,0-42.155,18.873-42.155,42.155c0,23.281,18.873,42.155,42.155,42.155
			s42.155-18.873,42.155-42.155C220.385,335.492,201.512,316.619,178.232,316.619z M178.232,375.849
			c-9.43,0-17.075-7.645-17.075-17.075c0-9.43,7.645-17.075,17.075-17.075s17.075,7.645,17.075,17.075
			C195.307,368.204,187.661,375.849,178.232,375.849z"/>
	</g>
</g>
<g>
	<g>
		<path d="M413.5,316.619c-23.282,0-42.155,18.873-42.155,42.155c0,23.281,18.873,42.155,42.155,42.155s42.155-18.873,42.155-42.155
			S436.781,316.619,413.5,316.619z M413.5,375.849c-9.43,0-17.075-7.645-17.075-17.075c0-9.43,7.645-17.075,17.075-17.075
			c9.43,0,17.075,7.645,17.075,17.075C430.574,368.204,422.929,375.849,413.5,375.849z"/>
	</g>
</g>
<g>
	<g>
		<path d="M175.536,220.683c-5.137,5.005-7.462,12.154-6.438,19.081c-19.355,12.353-3.327,2.123-22.634,14.444l-39.26-19.96
			l-6.655-57.032l17.831,45.79l15.28-23.146c6.85-10.375,3.992-24.338-6.383-31.188l-33.501-22.117
			c-10.366-6.844-24.333-4.002-31.188,6.383L5.109,240.002c-5.288,8.009-6.549,18.022-3.416,27.093l21.753,62.952l-16.091,71.43
			c-2.134,9.476,3.816,18.886,13.292,21.021c9.476,2.134,18.885-3.816,21.021-13.291l17.192-76.318
			c0.721-3.196,0.533-6.529-0.54-9.624l-13.318-38.422l25.341,38.021l-11.906,79.888c-1.58,10.599,6.621,20.18,17.415,20.18
			c8.568,0,16.072-6.269,17.373-14.996l12.906-86.592c0.643-4.315-0.341-8.716-2.761-12.346L82.39,277.521l2.846-4.309l-5.5-2.796
			c-11.977-6.089-16.835-18.885-15.984-26.283l7.049-61.324l7.349,62.979c0.578,4.944,3.575,9.38,8.154,11.708l53.768,27.336
			c7.478,3.804,16.553,0.755,20.3-6.616c1.824-3.588,2.21-7.82,0.744-11.922c7.642-4.877,1.644-1.05,17.706-11.301
			c5.617,3.693,12.731,4.723,19.333,2.45C190.172,244.467,195.907,253.786,175.536,220.683z"/>
	</g>
</g>
<g>
	<g>
		<path d="M229.376,230.501l-16.767-26.273c-1.944-3.048-5.991-3.941-9.039-1.997l-14.172,9.045
			c11.784,19.151,11.456,18.617,23.197,37.699l14.785-9.435C230.427,237.596,231.32,233.549,229.376,230.501z"/>
	</g>
</g>
<g>
	<g>
		<circle cx="140.506" cy="123.033" r="33.966"/>
	</g>
</g>
</svg>