<svg id="visual" viewBox="0 0 900 600" width="900" height="600" xmlns="http://www.w3.org/2000/svg" xmlns:xlink="http://www.w3.org/1999/xlink" version="1.1"><rect x="0" y="0" width="900" height="600" fill="#ffffff"></rect><path d="M319 0L322.3 16.7C325.7 33.3 332.3 66.7 350 100C367.7 133.3 396.3 166.7 410.8 200C425.3 233.3 425.7 266.7 407.5 300C389.3 333.3 352.7 366.7 330.7 400C308.7 433.3 301.3 466.7 320.2 500C339 533.3 384 566.7 406.5 583.3L429 600L0 600L0 583.3C0 566.7 0 533.3 0 500C0 466.7 0 433.3 0 400C0 366.7 0 333.3 0 300C0 266.7 0 233.3 0 200C0 166.7 0 133.3 0 100C0 66.7 0 33.3 0 16.7L0 0Z" fill="#0066FF" stroke-linecap="round" stroke-linejoin="miter"></path></svg>